<?xml version="1.0" encoding="UTF-8" standalone="no"?><svg xmlns:svg="http://www.w3.org/2000/svg" xmlns="http://www.w3.org/2000/svg" xmlns:xlink="http://www.w3.org/1999/xlink" version="1.0" width="64px" height="64px" viewBox="0 0 128 128" xml:space="preserve"><rect x="0" y="0" width="100%" height="100%" fill="#151A1F" /><g><path fill="#ffffff" d="M38.2 16.53S20.3 29.78 18 48.83c-2.62 21.44 8.4 32.68 8.4 32.68l6.5-3.8-.4 29.67L6.92 92.53l6.5-3.8S3.92 70 10.35 49.2c8.2-26.57 27.86-32.67 27.86-32.67zm-2.9 93.7s20.42 8.85 38.1 1.33c19.9-8.45 24.14-23.62 24.14-23.62L91 84.24l25.9-14.5-.1 29.53-6.52-3.7s-11.5 17.55-32.74 22.4c-27.13 6.2-42.24-7.74-42.24-7.74zm82.73-44.44s-2.55-22.14-17.9-33.7C82.86 19.1 67.6 23 67.6 23l.06 7.53-25.5-15.16L67.78.67l.05 7.5S88.8 9.4 103.6 25.35c18.96 20.4 14.43 40.46 14.43 40.46z"/><animateTransform attributeName="transform" type="rotate" from="360 64 64" to="0 64 64" dur="1920ms" repeatCount="indefinite"></animateTransform></g></svg>